<svg id="Layer_1" data-name="Layer 1" xmlns="http://www.w3.org/2000/svg" viewBox="0 0 1000 1000"><defs><style>.cls-1,.cls-2,.cls-3,.cls-4{fill:none;}.cls-1,.cls-2,.cls-3,.cls-4,.cls-5{stroke:#ed1e79;stroke-miterlimit:10;}.cls-1{stroke-width:9px;}.cls-2{stroke-width:11px;}.cls-3{stroke-width:8px;}.cls-4,.cls-5{stroke-width:7px;}.cls-5{fill:#ed1e79;}.cls-6{fill:#fff;}</style></defs><title>FlyingPigLogo07</title><circle cx="500" cy="500" r="439.5"/><g id="wingsv2"><path class="cls-1" d="M367.42,514.21C310.92,452.52,319,385.39,319,385.39c-143.66-39.91-161.41-81.64-161.41-81.64-14.53,78,118,96.09,103.3,101.6-43.58,16.33-96.85-30.84-95.23-23.59,20,90.11,112.86,45.51,101.69,58.06-32.28,36.29-82,3.43-79.09,9.07,32.28,61.69,98.24,19.94,92,30.84-14.53,25.4-59.43,16-53.27,23.59,9.41,11.63,23.23,16.82,23.23,16.82,20.36-7.75,96.4-27.59,120.43-.49C373.09,522.4,370.36,517.42,367.42,514.21Z"/><path class="cls-1" d="M634.42,514.21c56.49-61.69,48.42-128.82,48.42-128.82,143.66-39.91,161.42-81.64,161.42-81.64,14.53,78-118,96.09-103.31,101.6,43.58,16.33,96.85-30.84,95.24-23.59-20.05,90.11-112.86,45.51-101.69,58.06,32.28,36.29,82,3.43,79.09,9.07-32.28,61.69-98.25,19.94-92,30.84,14.53,25.4,59.43,16,53.27,23.59-9.41,11.63-23.23,16.82-23.23,16.82-20.35-7.75-96.39-27.59-120.43-.49C628.75,522.4,631.47,517.42,634.42,514.21Z"/></g><g id="PIG"><rect x="342.42" y="327.72" width="316.92" height="277.76" rx="39.6"/><rect class="cls-2" x="341.54" y="327.72" width="316.92" height="277.76" rx="39.6"/><g id="Nase"><rect class="cls-2" x="444.72" y="491.21" width="112.34" height="85.7" rx="11.6"/><ellipse class="cls-3" cx="476.31" cy="533.84" rx="11.85" ry="11.87"/><ellipse class="cls-3" cx="523.69" cy="533.84" rx="11.85" ry="11.87"/></g><g id="Augen"><rect class="cls-4" x="383.68" y="402.43" width="61.45" height="29.89" rx="10.6"/><rect class="cls-4" x="553.99" y="402.43" width="61.45" height="29.89" rx="10.6"/><path class="cls-5" d="M590.1,402.43h15.62a10.6,10.6,0,0,1,10.6,10.6v8.69a10.6,10.6,0,0,1-10.6,10.6H590.1a0,0,0,0,1,0,0V402.43A0,0,0,0,1,590.1,402.43Z"/><path class="cls-5" d="M383.68,402.43h14.74A10.6,10.6,0,0,1,409,413v8.69a10.6,10.6,0,0,1-10.6,10.6H383.68a0,0,0,0,1,0,0V402.43A0,0,0,0,1,383.68,402.43Z" transform="translate(792.7 834.75) rotate(180)"/></g></g><path class="cls-6" d="M420.59,685h24.34v4.9H426.42v15h17.1v4.82h-17.1v20.45h-5.83Z"/><path class="cls-6" d="M451.9,682.56h5.9v47.6h-5.9Z"/><path class="cls-6" d="M469.87,697.71,477,716.89c.73,2.14,1.54,4.69,2.07,6.64h.14c.6-1.95,1.27-4.43,2.08-6.78l6.43-19h6.24l-8.85,23.13C480.86,732,478,737.67,474,741.16a16,16,0,0,1-7.24,3.82l-1.48-5a15.74,15.74,0,0,0,5.17-2.88,18.09,18.09,0,0,0,5-6.57,4.29,4.29,0,0,0,.47-1.41,5.07,5.07,0,0,0-.41-1.54l-12-29.91Z"/><path class="cls-6" d="M505.88,688.59a3.66,3.66,0,0,1-7.31,0,3.59,3.59,0,0,1,3.68-3.68A3.5,3.5,0,0,1,505.88,688.59Zm-6.58,41.57V697.71h5.9v32.45Z"/><path class="cls-6" d="M515,706.5c0-3.36-.06-6.1-.27-8.79H520l.33,5.37h.13a11.93,11.93,0,0,1,10.73-6.1c4.49,0,11.47,2.68,11.47,13.81v19.37h-5.9v-18.7c0-5.23-2-9.59-7.51-9.59a8.4,8.4,0,0,0-7.92,6,8.76,8.76,0,0,0-.4,2.75v19.51H515Z"/><path class="cls-6" d="M580.16,697.71c-.13,2.35-.26,5-.26,8.92v18.84c0,7.44-1.48,12-4.63,14.82s-7.71,3.89-11.8,3.89c-3.89,0-8.18-.94-10.8-2.68l1.48-4.5a18.3,18.3,0,0,0,9.52,2.55c6,0,10.46-3.15,10.46-11.33V724.6H574A11.58,11.58,0,0,1,563.67,730c-8,0-13.81-6.84-13.81-15.82,0-11,7.17-17.23,14.61-17.23,5.64,0,8.72,2.95,10.13,5.63h.13l.27-4.9Zm-6.1,12.81a8.31,8.31,0,0,0-.33-2.68,8.5,8.5,0,0,0-8.25-6.24c-5.63,0-9.65,4.76-9.65,12.27,0,6.37,3.21,11.67,9.58,11.67a8.62,8.62,0,0,0,8.18-6,10.07,10.07,0,0,0,.47-3.15Z"/><path class="cls-6" d="M424.67,753.11a125.76,125.76,0,0,1,20.8-1.62c10.71,0,18.56,2.49,23.54,7,4.61,4,7.35,10.08,7.35,17.56s-2.24,13.57-6.48,17.93c-5.73,6.1-15.07,9.22-25.65,9.22a37.44,37.44,0,0,1-8.72-.75v33.63H424.67Zm10.84,40.48a36.48,36.48,0,0,0,9,.87c13.07,0,21-6.35,21-17.93,0-11.09-7.84-16.44-19.8-16.44a45.39,45.39,0,0,0-10.21.87Z"/><path class="cls-6" d="M500.77,758.84c.13,3.74-2.61,6.73-7,6.73a6.52,6.52,0,0,1-6.6-6.73,6.68,6.68,0,0,1,6.85-6.85A6.5,6.5,0,0,1,500.77,758.84Zm-12.2,77.22V775.78h11v60.28Z"/><path class="cls-6" d="M569.64,775.78c-.25,4.36-.5,9.21-.5,16.56v35c0,13.82-2.74,22.29-8.59,27.52-5.85,5.48-14.32,7.23-21.92,7.23-7.22,0-15.19-1.75-20-5l2.74-8.34A34,34,0,0,0,539,853.49c11.21,0,19.43-5.85,19.43-21v-6.73h-.25c-3.36,5.6-9.83,10.09-19.18,10.09-14.94,0-25.65-12.71-25.65-29.39,0-20.43,13.32-32,27.15-32,10.46,0,16.19,5.48,18.8,10.46h.25l.5-9.09Zm-11.33,23.79a15.91,15.91,0,0,0-.62-5c-2-6.35-7.35-11.58-15.32-11.58-10.46,0-17.94,8.84-17.94,22.79,0,11.83,6,21.67,17.81,21.67a16,16,0,0,0,15.2-11.21,19.08,19.08,0,0,0,.87-5.85Z"/></svg>